<?xml version="1.0" encoding="UTF-8" standalone="no"?>
<!-- Created with Inkscape (http://www.inkscape.org/) -->

<svg
   xmlns:dc="http://purl.org/dc/elements/1.1/"
   xmlns:cc="http://creativecommons.org/ns#"
   xmlns:rdf="http://www.w3.org/1999/02/22-rdf-syntax-ns#"
   xmlns:svg="http://www.w3.org/2000/svg"
   xmlns="http://www.w3.org/2000/svg"
   xmlns:sodipodi="http://sodipodi.sourceforge.net/DTD/sodipodi-0.dtd"
   xmlns:inkscape="http://www.inkscape.org/namespaces/inkscape"
   width="100"
   height="100"
   viewBox="0 0 26.458333 26.458333"
   version="1.1"
   id="svg8"
   inkscape:version="0.92.3 (2405546, 2018-03-11)"
   sodipodi:docname="check.svg">
  <defs
     id="defs2" />
  <sodipodi:namedview
     id="base"
     pagecolor="#ffffff"
     bordercolor="#666666"
     borderopacity="1.0"
     inkscape:pageopacity="0.0"
     inkscape:pageshadow="2"
     inkscape:zoom="0.66449955"
     inkscape:cx="32.857143"
     inkscape:cy="319.21729"
     inkscape:document-units="mm"
     inkscape:current-layer="layer1"
     showgrid="false"
     inkscape:window-width="1920"
     inkscape:window-height="1001"
     inkscape:window-x="-9"
     inkscape:window-y="-9"
     inkscape:window-maximized="1"
     units="px"
     width="100px" />
  <metadata
     id="metadata5">
    <rdf:RDF>
      <cc:Work
         rdf:about="">
        <dc:format>image/svg+xml</dc:format>
        <dc:type
           rdf:resource="http://purl.org/dc/dcmitype/StillImage" />
        <dc:title></dc:title>
      </cc:Work>
    </rdf:RDF>
  </metadata>
  <g
     inkscape:label="Layer 1"
     inkscape:groupmode="layer"
     id="layer1"
     transform="translate(0,-270.54167)">
    <path
       style="fill:#008000;stroke-width:0.2633003"
       d="m 9.7947634,294.73076 c -0.1605248,-1.01533 -0.3582397,-1.91103 -0.4393675,-1.99046 -0.081128,-0.0794 -0.8184523,0.35153 -1.6384991,0.95769 -0.8200473,0.60616 -1.5562811,1.03819 -1.6360763,0.96007 -0.079796,-0.0781 0.00385,-0.91463 0.1858003,-1.85887 0.1819853,-0.94427 0.2779962,-1.76862 0.213357,-1.8319 -0.064635,-0.0633 -0.9456619,0.10975 -1.9578264,0.38454 -1.0121654,0.27476 -1.8689796,0.47152 -1.9040327,0.4372 -0.035055,-0.0344 0.3968266,-0.83401 0.9597327,-1.77708 l 1.0234671,-1.71468 -0.9635614,-0.15603 c -0.5299588,-0.0858 -1.5024256,-0.16102 -2.1610364,-0.16713 l -1.19747582,-0.0111 0.67187091,-0.57793 c 0.36952951,-0.31788 1.13461911,-0.9504 1.70020101,-1.40563 l 1.0283301,-0.82766 -1.7667275,-0.78427 c -0.97170005,-0.43135 -1.76672746,-0.88579 -1.76672746,-1.00986 0,-0.12406 0.82393165,-0.48539 1.83095926,-0.80291 l 1.8309587,-0.57734 -1.6313792,-1.55322 -1.63137994,-1.55322 2.19537064,-0.005 c 1.2074549,-0.003 2.1953722,-0.0669 2.1953722,-0.14261 0,-0.0757 -0.3670838,-0.84964 -0.8157405,-1.71977 -0.4486574,-0.87014 -0.7664255,-1.63037 -0.7061511,-1.68937 0.060276,-0.059 0.9215953,0.19193 1.9140463,0.55766 0.9924519,0.36572 1.8444192,0.62582 1.8932622,0.578 0.048846,-0.0478 -0.00985,-0.96102 -0.1304305,-2.02931 -0.1205788,-1.0683 -0.1976065,-1.96986 -0.1711719,-2.00346 0.026441,-0.0336 0.7394224,0.5422 1.5844158,1.27953 1.7389331,1.51737 1.7812301,1.50148 2.2936541,-0.86254 0.182197,-0.84054 0.426547,-1.52827 0.542998,-1.52827 0.116453,0 0.60672,0.70342 1.089485,1.56316 0.482764,0.85973 0.952511,1.56315 1.04388,1.56315 0.09137,0 0.689198,-0.73006 1.328507,-1.62234 l 1.162382,-1.62233 0.327357,1.91413 c 0.180046,1.05278 0.389635,1.97512 0.465754,2.04965 0.07612,0.0745 0.809345,-0.36046 1.629391,-0.96661 0.820047,-0.60616 1.556281,-1.03819 1.636076,-0.96006 0.07979,0.0781 -0.0038,0.91461 -0.185801,1.85886 -0.181985,0.94426 -0.277995,1.76862 -0.213355,1.83191 0.06464,0.0633 0.945661,-0.10977 1.957826,-0.38454 1.012164,-0.27478 1.86898,-0.47152 1.904032,-0.4372 0.03506,0.0344 -0.396826,0.834 -0.959733,1.77706 l -1.023466,1.71468 0.963562,0.15604 c 0.529957,0.0858 1.502425,0.16102 2.161036,0.16713 l 1.197476,0.0111 -0.671872,0.57796 c -0.369529,0.31786 -1.13601,0.9515 -1.703292,1.4081 l -1.03142,0.83016 1.915027,0.83833 c 1.053266,0.46106 1.819748,0.92296 1.703292,1.02639 -0.116454,0.1035 -1.003649,0.44128 -1.971543,0.75075 l -1.759808,0.56267 1.626754,1.54884 1.626756,1.54885 -2.195371,0.005 c -1.207455,0.003 -2.195372,0.0669 -2.195372,0.14262 0,0.0757 0.367083,0.84963 0.815739,1.71977 0.448658,0.87014 0.766427,1.63037 0.706151,1.68937 -0.06028,0.059 -0.921594,-0.19194 -1.914046,-0.55766 -0.992451,-0.36571 -1.844419,-0.62581 -1.893261,-0.57801 -0.04884,0.0478 0.0098,0.96102 0.13043,2.02932 0.120579,1.06831 0.197606,1.96986 0.171171,2.00346 -0.02644,0.0336 -0.739421,-0.54219 -1.584414,-1.27953 -1.738933,-1.51738 -1.781231,-1.50147 -2.293655,0.86254 -0.182196,0.84055 -0.426546,1.52826 -0.542998,1.52826 -0.116452,0 -0.606721,-0.70341 -1.089484,-1.56315 -0.482765,-0.85973 -0.952511,-1.56314 -1.04388,-1.56314 -0.09138,0 -0.670115,0.70341 -1.286101,1.56314 -0.615985,0.85974 -1.150932,1.56315 -1.188769,1.56315 -0.03784,0 -0.2001328,-0.83071 -0.3606556,-1.84603 z m 4.0521046,-6.69399 c 1.280861,-1.94164 1.547978,-2.3153 2.142569,-2.99723 0.151835,-0.17414 0.56463,-0.78556 0.917322,-1.35872 0.352691,-0.57314 0.713774,-1.10072 0.802404,-1.17236 0.08863,-0.0716 0.424258,-0.55443 0.745837,-1.07285 0.433943,-0.69956 0.584691,-1.35446 0.584691,-2.54011 v -1.59753 h -1.723552 c -1.588968,0 -1.760229,0.0559 -2.19325,0.71644 -0.258335,0.39405 -0.680212,0.94372 -0.937505,1.22148 -0.257292,0.27778 -0.467805,0.59181 -0.467805,0.69784 0,0.10605 -0.154166,0.34771 -0.342591,0.53706 -0.188426,0.18935 -0.633677,0.8132 -0.989448,1.38636 -0.355771,0.57315 -0.740511,1.15933 -0.854979,1.30262 -0.114465,0.14328 -0.433124,0.54894 -0.708129,0.90144 l -0.500008,0.64093 -0.9587783,-0.96659 c -0.9127795,-0.92019 -1.0419859,-0.96657 -2.6931651,-0.96657 h -1.734387 v 1.70526 c 0,1.73426 0.054184,1.85066 1.5373645,3.30273 1.9298007,1.88933 2.6553315,2.25865 4.4500109,2.26519 l 1.596634,0.005 z"
       id="path3724"
       inkscape:connector-curvature="0" />
  </g>
</svg>
